# xmcd CD database file
#
# Track frame offsets:
#	150
#	28395
#	59903
#	76762
#	102576
#	128271
#	160603
#	187519
#	219657
#	242813
#	264211
#
# Disc length: 3785 seconds
#
# Revision: 0
# Processed by: cddbd v1.5.2PL0 Copyright (c) Steve Scherf et al.
# Submitted via: CDex 1.70beta2
#
DISCID=8b0ec70b
DTITLE=David and Steve Gordon - Groove Tribe
DYEAR=2011
DGENRE=New Age
TTITLE0=Fire Dancer
TTITLE1=Hunab Ku Transmitter
TTITLE2=Faithkeeper
TTITLE3=Day Dreamed
TTITLE4=Empowered
TTITLE5=Dream Body
TTITLE6=Sacred Medicine
TTITLE7=Secret Lotus
TTITLE8=Cobalt Transport
TTITLE9=Thunder Dreamer
TTITLE10=The OM Portal
EXTD=YEAR: 2011
EXTT0=
EXTT1=
EXTT2=
EXTT3=
EXTT4=
EXTT5=
EXTT6=
EXTT7=
EXTT8=
EXTT9=
EXTT10=
PLAYORDER=
